<svg xmlns="http://www.w3.org/2000/svg" width="64" height="64" id="chess"><path fill="#fbfbfb" d="M4.228 48.332a28.026 28.026 0 0 1 28.026-28.026A28.026 28.026 0 0 1 60.28 48.332H32.254z"></path><path fill="#f3f3f5" d="M11.228 48.332a21.026 21.026 0 0 1 21.026-21.026A21.026 21.026 0 0 1 53.28 48.332H32.254z"></path><path fill="#e8e8ec" d="M15.824 48.332a16.43 16.43 0 0 1 16.43-16.43 16.43 16.43 0 0 1 16.43 16.43h-16.43z"></path><path fill="#dfdfe5" d="M20.95 48.332A11.303 11.303 0 0 1 32.255 37.03a11.303 11.303 0 0 1 11.303 11.303H32.254z"></path><g transform="translate(5.352 16.27)"><path fill="#fb0" fill-rule="evenodd" d="M18.107 12.52c-.058 4.89.385 8.996 1.432 12.927h-7.078c1.047-3.931 1.467-8.037 1.41-12.927z"></path><path fill="#ff8e00" fill-rule="evenodd" d="M18.19 13.098c-.056 4.687.298 8.568 1.11 12.369h-6.906c4.322-1.159 5.796-1.537 5.796-12.369z"></path><path fill="#1b1e29" stroke="#12141a" stroke-linecap="round" d="M9.855 28.506c-.752 0-1.355.615-1.355 1.379v.236l.002.025H8.5V31.5h15v-1.354h-.002l.002-.025v-.236c0-.764-.603-1.38-1.355-1.38H9.855z" color="#000" overflow="visible"></path><rect width="5" height="1" x="13.5" y="10.021" fill="#f49d3b" rx="0" ry="0"></rect><rect width="7" height="2" x="12.5" y="10.521" fill="#fb0" stroke="#12141a" rx="1" ry="1"></rect><path fill="#fff" fill-rule="evenodd" d="M10.527 28.993h2c-.33.365-.446.718-.46 1.06-.013.334.014.5.014.94h-2.073c0-.579-.014-.68-.005-1.02.009-.327.185-.653.524-.98z"></path><rect width="11" height="3" x="10.5" y="25.506" fill="#fb0" stroke="#12141a" rx="1.5" ry="1.5"></rect><path fill="#fff" fill-rule="evenodd" d="M12.524 26.006h2c-.642.71-.586 1.374 0 2h-2c-.705-.667-.692-1.333 0-2zm1.738-14.985h1c-.32.355-.293.687 0 1h-1c-.353-.334-.346-.667 0-1zm.98 14.985h.712c-.642.71-.586 1.374 0 2h-.713c-.705-.667-.692-1.333 0-2z"></path><path fill="#ff8e00" fill-rule="evenodd" d="M19.476 26.006h-1.102c.642.71.587 1.374 0 2h1.102c.705-.667.692-1.333 0-2z"></path><path fill="#fff" fill-rule="evenodd" d="M20.473 28.993h-1.37c.329.365.445.718.459 1.06.013.334-.014.5-.014.94h1.444c0-.579.014-.68.005-1.02-.009-.327-.185-.653-.524-.98z"></path><circle cx="16" cy="8" r="2.5" fill="#fb0"></circle><path fill="#ff8e00" fill-rule="evenodd" d="M16.198 5.845c2.59.625 2.277 3.767.239 4.118 1.442-1.076 1.226-3.21-.24-4.118z"></path><path fill="#fff" fill-rule="evenodd" d="M15.772 5.845c-2.591.625-2.277 3.767-.24 4.118-1.441-1.076-1.226-3.21.24-4.118z"></path><path fill="#ff8e00" fill-rule="evenodd" stroke="#ff8e00" d="M14.032 13.527h3.966"></path><path fill="#fff" fill-rule="evenodd" stroke="#fff" d="M13.461 25.447c1.048-3.931 1.468-8.037 1.41-12.927"></path><path fill="none" stroke="#12141a" stroke-linecap="round" stroke-linejoin="round" d="M13.579 19.455a40.838 40.838 0 0 1-1.118 5.992h7.078c-1.047-3.931-1.467-8.037-1.41-12.927h-4.236c.018 1.555.041 2.18-.045 3.595m-.123 1.821c-.007.086.002.046-.006.13"></path><circle cx="16" cy="8" r="2.5" fill="none" stroke="#12141a" stroke-linecap="round" stroke-linejoin="round"></circle><path fill="#ff8e00" fill-rule="evenodd" d="M17.75 11.02h-1c.321.356.293.688 0 1h1c.353-.333.346-.666 0-1z"></path></g><g transform="translate(25.391 16.27)"><path fill="#fb0" fill-rule="evenodd" d="M18.107 12.52c-.058 4.89.385 8.996 1.432 12.927h-7.078c1.047-3.931 1.467-8.037 1.41-12.927z"></path><path fill="#ff8e00" fill-rule="evenodd" d="M18.19 13.098c-.056 4.687.298 8.568 1.11 12.369h-6.906c4.322-1.159 5.796-1.537 5.796-12.369z"></path><path fill="#1b1e29" stroke="#12141a" stroke-linecap="round" d="M9.855 28.506c-.752 0-1.355.615-1.355 1.379v.236l.002.025H8.5V31.5h15v-1.354h-.002l.002-.025v-.236c0-.764-.603-1.38-1.355-1.38H9.855z" color="#000" overflow="visible"></path><rect width="5" height="1" x="13.5" y="10.021" fill="#f49d3b" rx="0" ry="0"></rect><rect width="7" height="2" x="12.5" y="10.521" fill="#fb0" stroke="#12141a" rx="1" ry="1"></rect><path fill="#2e303e" fill-rule="evenodd" d="M10.527 28.993h2c-.33.365-.446.718-.46 1.06-.013.334.014.5.014.94h-2.073c0-.579-.014-.68-.005-1.02.009-.327.185-.653.524-.98z"></path><rect width="11" height="3" x="10.5" y="25.506" fill="#fb0" stroke="#12141a" rx="1.5" ry="1.5"></rect><path fill="#fff" fill-rule="evenodd" d="M12.524 26.006h2c-.642.71-.586 1.374 0 2h-2c-.705-.667-.692-1.333 0-2zm1.738-14.985h1c-.32.355-.293.687 0 1h-1c-.353-.334-.346-.667 0-1zm.98 14.985h.712c-.642.71-.586 1.374 0 2h-.713c-.705-.667-.692-1.333 0-2z"></path><path fill="#ff8e00" fill-rule="evenodd" d="M19.476 26.006h-1.102c.642.71.587 1.374 0 2h1.102c.705-.667.692-1.333 0-2z"></path><path fill="#12141a" fill-rule="evenodd" d="M20.473 28.993h-1.37c.329.365.445.718.459 1.06.013.334-.014.5-.014.94h1.444c0-.579.014-.68.005-1.02-.009-.327-.185-.653-.524-.98z"></path><circle cx="16" cy="8" r="2.5" fill="#fb0"></circle><path fill="#ff8e00" fill-rule="evenodd" d="M16.198 5.845c2.59.625 2.277 3.767.239 4.118 1.442-1.076 1.226-3.21-.24-4.118z"></path><path fill="#fff" fill-rule="evenodd" d="M15.772 5.845c-2.591.625-2.277 3.767-.24 4.118-1.441-1.076-1.226-3.21.24-4.118z"></path><path fill="#ff8e00" fill-rule="evenodd" stroke="#ff8e00" d="M14.032 13.527h3.966"></path><path fill="#fff" fill-rule="evenodd" stroke="#fff" d="M13.461 25.447c1.048-3.931 1.468-8.037 1.41-12.927"></path><path fill="none" stroke="#12141a" stroke-linecap="round" stroke-linejoin="round" d="M18.421 19.455c.235 2.087.604 4.06 1.118 5.992h-7.078c1.047-3.931 1.467-8.037 1.41-12.927h4.236c-.018 1.555-.041 2.18.045 3.595m.123 1.821c.007.086-.002.046.006.13"></path><circle cx="16" cy="8" r="2.5" fill="none" stroke="#12141a" stroke-linecap="round" stroke-linejoin="round"></circle><path fill="#ff8e00" fill-rule="evenodd" d="M17.75 11.02h-1c.321.356.293.688 0 1h1c.353-.333.346-.666 0-1z"></path></g><g transform="translate(-113.934 -31.89)"><path fill="#fc0" fill-rule="evenodd" d="M148.66 55.682c-.081 6.793.544 12.497 2.026 17.958h-10.01c1.481-5.46 2.075-11.165 1.993-17.958z"></path><path fill="#ff8e00" fill-rule="evenodd" d="M148.66 55.682c-.081 6.793.544 12.575 2.026 18.036h-10.01c6.264-1.679 7.985-2.337 7.985-18.036z"></path><path fill="none" stroke="#12141a" stroke-linecap="round" d="M142.233 65.392c.035-.308.145-1.314.175-1.625m.11-1.631c.13-2.052.178-4.193.151-6.454h5.992c-.082 6.793.543 12.497 2.025 17.958m-10.01 0a53.63 53.63 0 0 0 1.284-6.162"></path><path fill="#fc0" fill-rule="evenodd" d="m142.836 55.548-1.052-2.354 4-1.831 3.73 1.831-1.069 2.417"></path><path fill="#fff" fill-rule="evenodd" d="m143.114 55.548-1.051-2.354 3.872-1.474c-1.627 1.627-2.26 1.737-2.82 3.828z"></path><path fill="#1b1e34" stroke="#12141a" stroke-linecap="round" d="M138.283 76.68c-.902 0-1.626.614-1.626 1.378v.236l.002.026h-.002v1.353h18V78.32h-.002l.002-.026v-.236c0-.764-.724-1.379-1.625-1.379h-14.75z" color="#000" overflow="visible"></path><rect width="5" height="1" x="143.157" y="58.194" fill="#ff8e00" rx="0" ry="0"></rect><path fill="none" stroke="#fff" d="M141.78 73.64c1.482-5.46 1.949-11.165 1.867-17.958"></path><path fill="#ff8e00" fill-rule="evenodd" d="m148.756 55.548 1.052-2.354-3.873-1.474c1.627 1.627 2.26 1.737 2.821 3.828z"></path><rect width="10" height="2" x="140.657" y="55.679" fill="#fc0" stroke="#12141a" rx="1" ry="1"></rect><path fill="none" stroke="#12141a" stroke-linecap="round" d="M145.747 51.194v-3.015m-1.5 1.523h3"></path><path fill="#fff" fill-rule="evenodd" d="M139.76 77.166h2c-.33.366-.446.718-.46 1.06-.013.334.014.5.014.94h-2.073c0-.578-.014-.68-.005-1.02.009-.327.185-.653.524-.98z"></path><path fill="#fc0" stroke="#12141a" stroke-linecap="round" d="M146.766 73.68h.501m1.615 0h2.225c.83 0 1.5.668 1.5 1.5 0 .83-.67 1.5-1.5 1.5h-10.832c-.831 0-1.5-.67-1.5-1.5 0-.832.669-1.5 1.5-1.5h4.928"></path><path fill="#fff" fill-rule="evenodd" d="M140.745 74.18h2c-.642.71-.586 1.373 0 2h-2c-.705-.668-.693-1.334 0-2z"></path><path fill="none" stroke="#12141a" stroke-linecap="round" stroke-linejoin="round" d="m142.836 55.548-1.052-2.354 4-1.831 2.976 1.46.754.371-.08.182-.311.703-.678 1.532"></path><path fill="#fff" fill-rule="evenodd" d="M143.462 74.18h.713c-.642.71-.586 1.373 0 2h-.713c-.705-.668-.693-1.334 0-2zm-.953 2.986h.776c-.33.366-.446.718-.46 1.06-.013.334.014.5.014.94h-.849c0-.578-.014-.68-.005-1.02.009-.327.185-.653.524-.98z"></path><path fill="#ff8e00" fill-rule="evenodd" d="M150.833 74.18h-1.101c.642.71.586 1.373 0 2h1.101c.706-.668.693-1.334 0-2z"></path><path fill="#12141a" fill-rule="evenodd" d="M152.446 77.166h-1.37c.33.366.446.718.46 1.06.012.334-.015.5-.015.94h1.444c0-.578.014-.68.005-1.02-.009-.327-.185-.653-.524-.98z"></path><path fill="#fff" fill-rule="evenodd" d="M141.604 56.18c-.278 0-.454.284-.454.52 0 .234.211.48.454.48h.957l-.004-.006c-.231-.017-.43-.249-.43-.475 0-.227.168-.496.43-.514l.004-.006h-.957zM143.37 56.18c-.278 0-.454.284-.454.519 0 .235.211.48.453.48h.957l-.004-.006c-.23-.017-.43-.248-.43-.474 0-.228.169-.496.43-.514l.004-.006h-.957z"></path></g><path fill="none" stroke="#12141a" stroke-linecap="round" stroke-linejoin="round" d="M12.167 47.795h39.817m2.71 0h2.064m-52.53 0h5.705"></path><path fill="none" stroke="#e6e6e6" stroke-linecap="round" stroke-linejoin="round" d="M21.512 49.862h19.735m-17.173 2.023h5.263m2.467 0h7.06m-12.108 2.077h5.116"></path><path style="line-height:normal;text-indent:0;text-align:start;text-decoration-line:none;text-transform:none;block-progression:tb" fill="#fc0" fill-rule="evenodd" d="M865.915-102.015a.313.313 0 0 0-.308.317c0 .217-.092.315-.307.315-.423-.006-.423.631 0 .625.207 0 .307.057.307.302-.006.422.632.422.626 0 0-.222.103-.302.308-.302.423.006.423-.631 0-.625-.278 0-.308-.16-.308-.315a.313.313 0 0 0-.318-.317zM856.79-90.7a.43.43 0 0 0-.422.436c0 .297-.127.432-.422.432-.58-.008-.58.866 0 .858.284 0 .422.078.422.414-.008.58.866.58.858 0 0-.305.142-.414.424-.414.58.009.58-.866 0-.858-.383 0-.424-.219-.424-.432a.43.43 0 0 0-.436-.436z" color="#000" font-family="sans-serif" font-weight="400" overflow="visible" transform="translate(-844.105 118.087)"></path><path style="line-height:normal;text-indent:0;text-align:start;text-decoration-line:none;text-transform:none;block-progression:tb" fill="#12141a" fill-rule="evenodd" d="M859.082-83.722a.236.236 0 0 0-.231.239c0 .163-.07.237-.232.237-.319-.005-.319.476 0 .471.156 0 .232.043.232.227-.005.319.475.319.47 0 0-.167.079-.227.233-.227.319.005.319-.475 0-.47-.21 0-.232-.12-.232-.238a.236.236 0 0 0-.24-.24z" color="#000" font-family="sans-serif" font-weight="400" overflow="visible" transform="translate(-844.105 118.087)"></path><path style="line-height:normal;text-indent:0;text-align:start;text-decoration-line:none;text-transform:none;block-progression:tb" fill="#ff8e00" fill-rule="evenodd" d="M856.54-102.005a.313.313 0 0 0-.307.317c0 .217-.092.315-.307.315-.423-.006-.423.631 0 .625.207 0 .307.057.307.302-.006.422.631.422.625 0 0-.222.104-.302.31-.302.422.006.422-.631 0-.625-.28 0-.31-.16-.31-.315a.313.313 0 0 0-.317-.317z" color="#000" font-family="sans-serif" font-weight="400" overflow="visible" transform="translate(-844.105 118.087)"></path><path style="line-height:normal;text-indent:0;text-align:start;text-decoration-line:none;text-transform:none;block-progression:tb" fill="#12141a" fill-rule="evenodd" d="M884.992-106.997a.236.236 0 0 0-.231.24c0 .163-.07.237-.232.237-.319-.005-.319.476 0 .471.156 0 .232.043.232.227-.005.319.475.319.47 0 0-.167.079-.227.233-.227.319.005.319-.476 0-.471-.21 0-.232-.12-.232-.237a.236.236 0 0 0-.24-.24z" color="#000" font-family="sans-serif" font-weight="400" overflow="visible" transform="translate(-844.105 118.087)"></path><path style="line-height:normal;text-indent:0;text-align:start;text-decoration-line:none;text-transform:none;block-progression:tb" fill="#ff8e00" fill-rule="evenodd" d="M882.79-99.755a.313.313 0 0 0-.307.317c0 .217-.092.315-.307.315-.423-.006-.423.631 0 .625.207 0 .307.057.307.302-.006.422.631.422.625 0 0-.222.104-.302.31-.302.422.006.422-.631 0-.625-.28 0-.31-.16-.31-.315a.313.313 0 0 0-.317-.317z" color="#000" font-family="sans-serif" font-weight="400" overflow="visible" transform="translate(-844.105 118.087)"></path><path style="line-height:normal;text-indent:0;text-align:start;text-decoration-line:none;text-transform:none;block-progression:tb" fill="#12141a" fill-rule="evenodd" d="M895.707-94.973a.236.236 0 0 0-.232.24c0 .163-.07.237-.232.237-.319-.005-.319.476 0 .47.156 0 .232.044.232.228-.005.319.475.319.47 0 0-.167.079-.227.233-.227.319.005.319-.476 0-.471-.21 0-.232-.12-.232-.237a.236.236 0 0 0-.24-.24z" color="#000" font-family="sans-serif" font-weight="400" overflow="visible" transform="translate(-844.105 118.087)"></path><path style="line-height:normal;text-indent:0;text-align:start;text-decoration-line:none;text-transform:none;block-progression:tb" fill="#ff8e00" fill-rule="evenodd" d="M895.738-83.561a.43.43 0 0 0-.422.435c0 .298-.127.433-.422.433-.58-.008-.58.866 0 .857.284 0 .422.08.422.414-.008.58.866.58.858 0 0-.304.143-.414.424-.414.58.01.58-.866 0-.857-.382 0-.424-.22-.424-.433a.43.43 0 0 0-.436-.435z" color="#000" font-family="sans-serif" font-weight="400" overflow="visible" transform="translate(-844.105 118.087)"></path><path style="line-height:normal;text-indent:0;text-align:start;text-decoration-line:none;text-transform:none;block-progression:tb" fill="#fc0" fill-rule="evenodd" d="M891.666-101.38a.313.313 0 0 0-.308.317c0 .217-.092.315-.307.315-.423-.006-.423.631 0 .625.207 0 .307.057.307.302-.006.422.631.422.625 0 0-.222.104-.302.31-.302.422.006.422-.631 0-.625-.28 0-.31-.16-.31-.315a.313.313 0 0 0-.317-.317z" color="#000" font-family="sans-serif" font-weight="400" overflow="visible" transform="translate(-844.105 118.087)"></path><path style="line-height:normal;text-indent:0;text-align:start;text-decoration-line:none;text-transform:none;block-progression:tb" fill="#12141a" fill-rule="evenodd" d="M870.855-108.548a.242.242 0 0 0-.238.245c0 .167-.071.243-.237.243-.327-.005-.327.488 0 .484.16 0 .237.044.237.233-.004.326.488.326.483 0 0-.172.08-.233.24-.233.326.005.326-.488 0-.484-.216 0-.24-.123-.24-.243a.242.242 0 0 0-.245-.245z" color="#000" font-family="sans-serif" font-weight="400" overflow="visible" transform="translate(-844.105 118.087)"></path></svg>